# xmcd
#
# Track frame offsets:
#  150
#  38048
#  53067
#  73037
#  93832
#  106064
#  128333
#  150660
#  189851
#
# Disc length: 2840 seconds
#
# Revision: 0
# Processed by: cddbd v1.5.1PL0 Copyright (c) Steve Scherf et al.
# Submitted via: Collectorz.com Music Collector 6.9
#
DISCID=610b1609
DTITLE=robert earl keen - Live From Austin Tx (Dvd Rip) - Disc 1
DYEAR=2004
DGENRE=
TTITLE0=Dreadfu Selfish Crime
TTITLE1=Blow You Away
TTITLE2=Shades Of Gray
TTITLE3=I'm Going To Town
TTITLE4=That Buckin' Song
TTITLE5=I Still Miss Someone
TTITLE6=The Coming Home Of The Son and Brother
TTITLE7=The Road Goes On Forever
TTITLE8=Merry Chrismas From The Family
EXTD=
EXTT0=
EXTT1=
EXTT2=
EXTT3=
EXTT4=
EXTT5=
EXTT6=
EXTT7=
EXTT8=
PLAYORDER=
